<svg width="62" height="62" viewBox="0 0 62 62" fill="none" xmlns="http://www.w3.org/2000/svg"><rect width="62" height="62" rx="31" fill="white"/><g transform="translate(11 12.8) scale(0.909)"><path d="M3.98023 36.2305C3.98023 36.2305 6.24474 37.1363 6.24474 38.0421C6.24474 38.0421 6.09381 38.7969 5.33897 38.7969C4.58414 38.7969 3.52734 37.5892 3.52734 36.9853C3.52734 36.3814 3.98023 36.2305 3.98023 36.2305Z" fill="#003954"></path><path d="M1.56578 24.9088C1.41481 24.9088 1.41481 24.7578 1.56578 24.9088C1.41481 24.7578 1.4148 24.7578 1.4148 24.7578C0.961897 24.9088 0.207031 25.5127 0.207031 26.5694C0.207031 30.6456 11.2277 31.0985 17.2664 38.4959C17.8703 39.2507 18.927 39.7036 19.9838 39.7036C21.3425 39.7036 22.7012 39.5527 23.909 39.4017C24.06 39.4017 24.2109 39.2507 24.2109 39.0997C24.2109 38.9488 24.2109 38.7978 24.2109 38.6469C16.8135 28.532 2.77352 30.9475 1.56578 24.9088Z" fill="#003954"></path><path d="M17.4199 12.0763C16.665 11.3214 14.7025 11.9253 13.6457 12.8311C12.5889 13.7369 13.0418 14.3408 13.0418 14.3408C13.9476 13.1331 15.3063 12.5292 16.2121 12.3782C16.9669 12.3782 17.4199 12.0763 17.4199 12.0763Z" fill="#003954"></path><path d="M40.0627 14.191C40.0627 14.191 38.553 14.4929 37.1943 12.9832C37.1943 12.9832 37.7982 12.9832 37.9492 12.2284C37.7982 12.2284 38.704 13.889 40.0627 14.191ZM39.6098 21.1355C39.6098 21.1355 39.3079 22.7961 37.3453 22.7961C35.2317 22.7961 33.4201 19.9278 32.8163 13.1342C33.2692 13.8891 33.873 14.6439 34.175 15.5497C34.175 14.6439 34.6279 12.9832 32.5144 11.4736C32.5144 11.4736 38.1001 12.6813 38.2511 18.4181C38.2511 19.4749 37.6472 20.3806 37.3453 20.8335C37.3453 20.8335 37.0434 20.9845 37.1943 21.4374C37.3453 21.7394 37.7982 21.7394 38.2511 21.2865C38.704 20.8336 39.6098 20.2297 39.6098 21.1355ZM31.7595 24.3058C31.7595 24.3058 30.2498 27.1742 28.1363 27.1742C27.2304 27.1742 26.6266 26.5703 26.6266 25.8155C26.6266 25.0607 27.6834 22.0413 32.0614 22.0413C33.1182 22.0413 33.8731 22.1923 33.8731 22.9471C34.024 23.4 32.9673 24.4568 31.7595 24.3058ZM31.7595 9.96388C31.7595 9.96388 31.1556 9.81289 31.3066 8.90709C31.4576 8.60515 31.4576 8.60515 31.4576 8.15225C31.4576 7.69935 31.6085 7.24647 31.9104 7.0955C31.9104 7.0955 32.5144 7.09547 32.5144 8.75611C32.5144 9.51095 31.7595 9.96388 31.7595 9.96388ZM29.7969 9.96388C28.8911 9.81291 29.495 8.4542 28.8911 8.4542C28.5892 8.4542 28.5892 9.96387 28.2872 9.8129C27.6834 9.36 28.1363 8.30324 28.1363 7.85034C28.1363 7.39744 28.4382 6.79357 27.9853 7.0955C27.5324 7.39744 27.2305 8.15224 27.0795 8.75611C26.9285 9.35998 27.2305 9.66193 27.5324 10.4168C27.8343 11.1716 27.3814 10.8697 27.3814 10.8697C25.1169 9.51099 26.7776 6.49159 26.7776 6.49159C27.8343 4.83095 29.344 5.28387 29.344 5.28387C29.646 5.43484 29.6459 5.5858 29.6459 5.88773C29.6459 6.18967 29.7969 6.34063 30.0989 6.49159C30.5518 6.64256 30.7027 7.09547 30.7027 8.00127C30.7027 9.05805 30.0988 10.1148 29.7969 9.96388ZM33.2692 9.8129L37.0434 11.0206C37.0434 11.0206 37.7982 12.3793 36.2886 11.9264C34.9298 11.4735 33.5711 11.1716 33.5711 11.1716C33.5711 11.1716 32.9673 10.7187 33.2692 9.8129ZM14.7001 15.5497C11.9827 16.0026 11.0769 15.2478 11.0769 14.4929C11.0769 12.3794 17.2666 10.7187 18.9273 10.7187C19.2292 11.1716 18.6253 11.1716 18.4743 11.9264C18.1724 12.6813 17.5686 12.9832 16.6627 13.1342C15.7569 13.2852 14.8511 13.7381 14.2473 14.191C13.6434 14.6439 14.2472 14.9458 15.304 14.6439C16.3608 14.342 16.5117 14.7949 16.9647 14.6439C17.4176 14.4929 16.9647 13.8891 17.2666 13.8891C17.5685 13.7381 18.1724 14.191 18.1724 14.191L19.6821 15.2478L17.8705 16.1536C17.7195 16.1536 17.5685 16.3045 17.5685 16.6065C17.5685 16.9084 18.4744 16.9084 18.9273 16.9084C19.2292 16.9084 19.3801 17.5123 19.3801 17.5123C18.9272 18.1161 17.5685 18.1161 17.5685 18.1161C17.8704 18.72 19.5311 18.569 19.833 18.72C20.135 18.72 20.135 19.1729 20.4369 19.9278C20.5879 20.6826 21.6447 20.9845 21.6447 20.9845C21.9466 22.1923 20.5879 22.4942 19.6821 22.4942C14.0963 22.1923 14.7001 15.5497 14.7001 15.5497ZM15.304 7.0955C15.153 7.0955 15.153 7.0955 15.304 7.0955C14.8511 4.83099 15.7569 2.26452 15.7569 2.26452C15.7569 2.26452 13.4924 4.07615 13.6434 7.0955C11.6808 7.0955 8.8124 7.24643 7.15175 8.75611C4.73627 10.7187 4.43434 14.4929 4.28337 15.5497C4.28337 15.5497 4.28336 15.7006 4.1324 15.7006H3.98142C3.37755 15.3987 2.16984 14.191 3.07565 11.6245C4.28339 8.30324 7.90661 1.66063 15.0021 1.20772C15.0021 1.20772 17.2666 1.05676 18.6253 1.96256C18.6253 1.96256 18.7763 1.96257 18.7763 2.11354V2.26452C18.1724 2.71742 16.2098 4.52901 15.606 7.24643C15.606 7.3974 15.455 7.39741 15.455 7.39741C15.455 7.09548 15.304 7.0955 15.304 7.0955ZM20.5879 16.0026C20.5879 16.0026 21.1918 18.871 22.5505 19.9278C22.5505 19.9278 22.5504 20.2297 22.0975 20.2297C21.6446 20.2297 20.8898 19.6258 20.5879 17.9652C20.2859 16.4555 20.5879 16.0026 20.5879 16.0026ZM22.5505 8.75611C20.8898 8.75611 20.135 7.24643 20.135 7.24643C20.135 7.24643 22.0976 9.05807 24.815 7.54839C24.815 7.69936 24.2111 8.75611 22.5505 8.75611ZM43.384 11.1716C42.9311 10.2658 42.3272 9.66195 40.9685 9.36002C39.7608 9.05808 38.704 9.20903 37.9492 9.8129L35.5337 8.90709C35.2318 8.30322 35.0808 7.69934 34.7789 7.24643C34.6279 6.79353 34.326 6.49163 34.024 6.34066C32.3634 5.43486 27.9853 3.17033 26.3247 5.43485C26.3247 5.43485 26.1737 5.58579 26.1737 5.73676L25.5698 5.58583C25.2679 4.68002 24.3621 3.92515 23.1543 3.62322C22.3995 3.47225 21.6447 3.47226 21.0408 3.77419C20.5879 3.92516 20.5879 4.52904 21.0408 4.68001L23.0034 5.43485C23.4563 5.58582 23.7582 6.03869 23.4563 6.49159C23.3053 6.9445 22.8524 7.24646 22.3995 6.94453C22.3995 6.94453 21.1918 6.6426 20.286 6.34066C19.8331 6.1897 19.3802 6.6426 19.5311 7.0955C19.8331 8.00131 20.7389 8.90711 21.9466 9.20904C23.0034 9.51098 24.0602 9.20901 24.815 8.75611L25.2679 8.90709C25.2679 9.96386 26.1737 11.3226 26.9285 11.7755C28.1363 12.5303 29.193 11.9264 30.4008 11.1716C30.4008 11.1716 33.5711 13.5871 32.0614 20.6826C28.1363 21.1355 26.6266 22.4942 25.2679 24.0039C24.3621 23.7019 21.6447 23.4 20.135 23.8529C20.5879 23.4 21.1917 22.9471 22.0975 22.6452C22.5504 22.4942 22.7015 22.1923 22.7015 21.7393C22.7015 21.7393 24.513 21.1355 24.513 20.5316C24.513 19.9278 22.2485 19.9277 21.3427 15.0968C21.1917 14.4929 21.0408 14.04 20.135 13.7381C20.135 13.7381 19.8331 13.2852 20.286 12.6813C20.7389 12.0774 20.8898 11.9265 20.7388 11.4736C20.5879 11.0207 19.984 10.7187 19.984 10.7187V9.96388C19.984 9.96388 18.1724 8.60515 18.1724 6.64257C18.1724 4.67999 20.7388 2.4155 21.3427 1.81163V1.66065C21.3427 1.66065 21.3427 1.50968 21.1918 1.50968C20.286 0.905806 18.6253 0 15.9079 0C5.34017 0 2.92467 9.51095 0.660156 14.04C0.660156 14.191 0.660156 14.191 0.660156 14.3419C2.92467 18.871 6.54791 18.418 6.84984 22.3432C7.00081 25.3626 6.24594 25.3626 5.64207 25.3626C5.18917 25.3626 4.43433 24.9097 4.1324 24.6077H3.98142C3.98142 24.6077 3.83045 24.7587 3.98142 24.7587C4.28335 25.5135 5.03822 27.3252 7.4537 27.3252C8.66145 27.3252 8.96338 26.2684 8.96338 25.2116V21.7393C8.96338 21.4374 8.8124 21.1355 8.66143 20.8335C7.90659 20.0787 6.095 18.418 6.095 17.0593C6.095 16.4555 6.54787 16.1536 7.00077 16.1536C7.90658 16.1536 8.8124 17.5122 9.56724 19.3239C9.71821 19.7768 10.0201 20.0787 10.1711 20.2297H10.3221C10.3221 20.2297 10.3221 20.2297 10.3221 20.0787C10.0201 19.0219 10.0202 17.9652 9.8692 17.5123C9.8692 17.3613 9.71821 17.0594 9.56724 16.9084C8.8124 16.3045 7.00077 14.4929 7.00077 11.7755C7.00077 8.15224 12.8885 8.4542 14.0963 8.4542C14.3982 9.66195 15.153 10.2658 15.606 10.4168C13.7943 11.0206 9.8692 12.3794 9.8692 14.6439C9.8692 17.0594 13.9453 16.9084 13.9453 16.9084C13.9453 16.9084 13.3414 21.7393 17.8705 23.249C17.8705 23.249 17.1156 24.0039 14.7001 24.0039C12.4356 24.0039 11.3788 22.9471 10.775 21.7393C10.775 21.7393 10.775 21.5884 10.624 21.5884C10.624 21.5884 10.4731 21.5884 10.4731 21.7393C10.3221 22.0413 10.3221 22.6452 10.624 23.249C11.2279 24.3058 12.1337 24.9097 12.1337 26.2684C12.1337 27.3252 11.2279 27.929 10.775 28.08C11.6808 28.231 15.7569 29.2877 18.4743 30.6464C18.7763 30.4955 21.1917 28.9858 21.3427 26.8722C21.3427 26.8722 21.4937 25.5135 19.5311 25.3626C19.5311 25.3626 20.4369 25.0607 21.9466 25.0607C23.4563 25.0607 25.1169 26.2684 22.0975 32.609C22.0975 32.609 22.0975 32.6091 22.0975 32.76C22.5504 33.062 26.0227 35.3264 28.2872 37.44H28.4382C28.4382 37.44 28.5892 37.44 28.5892 37.2891C28.8911 36.9871 29.495 35.9303 29.7969 33.3639C29.7969 33.0619 29.9479 32.911 30.2498 32.911C31.6085 32.458 36.1376 31.0993 38.1001 28.3819C40.3647 25.2116 41.2705 24.7587 41.2705 24.7587C41.2705 24.7587 42.7802 23.8529 42.1763 21.5884C41.8743 20.3806 40.0627 17.3613 38.2511 14.191C38.704 14.4929 39.1569 14.6439 39.6098 14.7948C40.6666 15.0968 41.7234 14.9458 42.4782 14.4929C42.6292 14.3419 42.7801 14.191 42.7801 14.04C42.7801 13.889 42.6292 13.7381 42.4782 13.5871L40.5156 12.8323C40.0627 12.6813 39.7608 12.0774 39.9118 11.6245C40.0627 11.1716 40.6666 10.8697 41.1195 11.0206L42.9311 11.6245C43.0821 11.6245 43.233 11.6245 43.384 11.4736C43.535 11.3226 43.384 11.4735 43.384 11.1716Z" fill="#003954"></path><path d="M16.6629 16.9062C16.6629 16.9062 15.9081 17.0572 16.059 18.265C16.21 19.3217 17.1158 19.3217 17.1158 19.3217C16.361 18.4159 16.6629 16.9062 16.6629 16.9062Z" fill="#003954"></path><path d="M3.52825 31.8545C6.24567 33.3642 12.2844 35.1758 13.4921 38.3461C13.4921 38.3461 13.945 39.101 11.5295 39.101C9.71791 39.101 9.26502 38.6481 8.05728 37.1384C6.24567 35.0249 2.47145 33.6662 2.47145 32.0055C2.32049 32.1565 2.47147 31.2507 3.52825 31.8545Z" fill="#003954"></path></g></svg>
